<svg width="96" height="64" viewBox="0 0 96 64" fill="none" xmlns="http://www.w3.org/2000/svg">
<path fill-rule="evenodd" clip-rule="evenodd" d="M93.4401 37.4959H0V33.2612H93.4401V37.4959Z" fill="#231F20"/>
<path d="M40.9789 0.00439453L36.0328 15.4609L34.449 20.4409L23.2272 54.9662L12.0667 20.6103L12.018 20.5849C11.3277 20.1508 11.2092 19.5538 11.0398 18.8804C10.371 17.7274 10.0066 16.4231 9.98112 15.0904C9.98392 14.9089 10.0367 14.7316 10.1336 14.578L5.3865 0.00439453H0L20.8431 63.5245H25.6113L46.4543 0.00439453H40.9789Z" fill="#231F20"/>
<path d="M60.6742 28.0822V0H55.5503V63.5285H60.6742V33.0537" fill="#231F20"/>
<path d="M90.8782 33.0537V63.5285H96V0H90.8782V28.0822" fill="#231F20"/>
<path fill-rule="evenodd" clip-rule="evenodd" d="M11.4476 21.4467L9.21802 14.5061L10.0244 14.2471L12.2539 21.1877L11.4476 21.4467Z" fill="#231F20"/>
</svg>
