<svg width="532" height="176" viewBox="0 0 532 176" fill="none" xmlns="http://www.w3.org/2000/svg">
<g opacity="0.75" clip-path="url(#clip0)">
<path d="M31.3511 71.408H27.3911C27.3911 69.392 26.9831 67.712 26.1671 66.368C25.3991 64.976 24.2231 63.92 22.6391 63.2C21.1031 62.432 19.3031 62.048 17.2391 62.048C14.2151 62.048 11.7431 62.84 9.82309 64.424C7.95109 65.96 7.01509 68.312 7.01509 71.48V97.328C7.01509 100.496 7.95109 102.872 9.82309 104.456C11.7431 105.992 14.2151 106.76 17.2391 106.76C18.5831 106.76 20.0471 106.52 21.6311 106.04C23.2631 105.56 24.6311 104.6 25.7351 103.16C26.8391 101.672 27.3911 99.728 27.3911 97.328H31.3511V97.4C31.3511 101.336 30.0551 104.528 27.4631 106.976C24.9191 109.424 21.5111 110.648 17.2391 110.648C12.9191 110.648 9.46309 109.448 6.87109 107.048C4.32709 104.6 3.05509 101.408 3.05509 97.472V71.336C3.05509 67.4 4.32709 64.232 6.87109 61.832C9.46309 59.384 12.9191 58.16 17.2391 58.16C21.5111 58.16 24.9191 59.384 27.4631 61.832C30.0551 64.28 31.3511 67.472 31.3511 71.408ZM54.786 110.648C50.466 110.648 47.01 109.448 44.418 107.048C41.874 104.6 40.602 101.408 40.602 97.472V71.336C40.602 67.4 41.874 64.232 44.418 61.832C47.01 59.384 50.466 58.16 54.786 58.16C59.058 58.16 62.466 59.384 65.01 61.832C67.602 64.28 68.898 67.472 68.898 71.408V97.4C68.898 101.336 67.602 104.528 65.01 106.976C62.466 109.424 59.058 110.648 54.786 110.648ZM64.938 71.48C64.938 69.464 64.53 67.76 63.714 66.368C62.946 64.976 61.77 63.92 60.186 63.2C58.65 62.432 56.85 62.048 54.786 62.048C51.762 62.048 49.29 62.84 47.37 64.424C45.498 65.96 44.562 68.312 44.562 71.48V97.328C44.562 100.496 45.498 102.872 47.37 104.456C49.29 105.992 51.762 106.76 54.786 106.76C56.13 106.76 57.594 106.52 59.178 106.04C60.81 105.56 62.178 104.6 63.282 103.16C64.386 101.672 64.938 99.728 64.938 97.328V71.48ZM83.9538 110H79.9938V58.664H85.6818L97.9218 88.184L110.018 58.664H115.85V110H111.89V64.208L99.7938 93.656H96.0498L83.9538 64.208V110ZM127.736 58.664H131.696V110H127.736V58.664ZM172.212 110H166.668L147.516 64.784V110H143.556V58.664H148.884L168.252 104.456V58.664H172.212V110ZM211.703 71.408H207.743C207.743 69.392 207.335 67.712 206.519 66.368C205.751 64.976 204.575 63.92 202.991 63.2C201.455 62.432 199.655 62.048 197.591 62.048C194.567 62.048 192.095 62.84 190.175 64.424C188.303 65.96 187.367 68.312 187.367 71.48V97.328C187.367 100.496 188.303 102.872 190.175 104.456C192.095 105.992 194.567 106.76 197.591 106.76C200.567 106.76 202.991 106.016 204.863 104.528C206.735 102.992 207.695 100.64 207.743 97.472V86.384H196.799V82.496H211.703V97.4C211.703 101.336 210.407 104.528 207.815 106.976C205.271 109.424 201.863 110.648 197.591 110.648C193.271 110.648 189.815 109.448 187.223 107.048C184.679 104.6 183.407 101.408 183.407 97.472V71.336C183.407 67.4 184.679 64.232 187.223 61.832C189.815 59.384 193.271 58.16 197.591 58.16C201.863 58.16 205.271 59.384 207.815 61.832C210.407 64.28 211.703 67.472 211.703 71.408ZM259.713 97.4C259.713 101.528 258.585 104.768 256.329 107.12C254.073 109.472 250.953 110.648 246.969 110.648C243.081 110.648 240.009 109.448 237.753 107.048C235.497 104.648 234.369 101.48 234.369 97.544H238.329C238.329 100.568 239.097 102.872 240.633 104.456C242.217 105.992 244.353 106.76 247.041 106.76C249.777 106.76 251.913 106.016 253.449 104.528C254.985 102.992 255.753 100.76 255.753 97.832V62.552H239.913V58.664H259.713V97.4ZM294.86 58.664H298.82V97.4C298.82 101.336 297.524 104.528 294.932 106.976C292.388 109.424 288.98 110.648 284.708 110.648C280.388 110.648 276.932 109.448 274.34 107.048C271.796 104.6 270.524 101.408 270.524 97.472V58.664H274.484V97.328C274.484 100.496 275.42 102.872 277.292 104.456C279.212 105.992 281.684 106.76 284.708 106.76C286.052 106.76 287.516 106.52 289.1 106.04C290.732 105.56 292.1 104.6 293.204 103.16C294.308 101.672 294.86 99.728 294.86 97.328V58.664ZM336.772 110H309.916V58.664H313.876V106.112H336.772V110ZM368.983 58.664L355.375 91.496V110H351.415V91.424L337.879 58.664H342.199L353.431 86.6L364.663 58.664H368.983ZM419.67 71.984C419.67 76.304 418.038 79.904 414.774 82.784C413.382 84.032 410.862 85.736 407.214 87.896C403.614 90.056 401.142 91.712 399.798 92.864C398.262 94.112 397.11 95.408 396.342 96.752C395.574 98.048 395.19 99.632 395.19 101.504V106.112H419.598V110H391.23V101.072C391.23 96.8 393.414 92.96 397.782 89.552C399.174 88.448 401.55 86.888 404.91 84.872C408.318 82.808 410.694 81.248 412.038 80.192C414.534 78.224 415.782 75.512 415.782 72.056C415.782 68.888 414.894 66.44 413.118 64.712C411.342 62.936 408.846 62.048 405.63 62.048C404.238 62.048 402.87 62.264 401.526 62.696C400.182 63.128 399.03 63.728 398.07 64.496C397.158 65.264 396.438 66.248 395.91 67.448C395.382 68.6 395.118 69.896 395.118 71.336H391.158C391.158 67.544 392.526 64.4 395.262 61.904C397.998 59.408 401.454 58.16 405.63 58.16C407.118 58.16 408.678 58.376 410.31 58.808C411.942 59.24 413.526 60.08 415.062 61.328C416.598 62.576 417.75 64.16 418.518 66.08C419.286 68 419.67 69.968 419.67 71.984ZM442.469 110.648C439.877 110.648 437.597 110.144 435.629 109.136C433.709 108.08 432.149 106.568 430.949 104.6C429.749 102.584 429.149 100.184 429.149 97.4V71.408C429.149 69.104 429.653 66.896 430.661 64.784C431.669 62.672 433.229 61.04 435.341 59.888C437.501 58.736 439.877 58.16 442.469 58.16C445.061 58.16 447.317 58.688 449.237 59.744C451.205 60.752 452.789 62.264 453.989 64.28C455.189 66.248 455.789 68.624 455.789 71.408V97.4C455.789 99.704 455.285 101.912 454.277 104.024C453.269 106.136 451.685 107.768 449.525 108.92C447.413 110.072 445.061 110.648 442.469 110.648ZM442.469 62.048C439.685 62.048 437.429 62.84 435.701 64.424C433.973 66.008 433.109 68.384 433.109 71.552V97.256C433.109 100.424 433.973 102.8 435.701 104.384C437.429 105.968 439.685 106.76 442.469 106.76C445.253 106.76 447.509 105.968 449.237 104.384C450.965 102.8 451.829 100.424 451.829 97.256V71.552C451.829 68.384 450.965 66.008 449.237 64.424C447.509 62.84 445.253 62.048 442.469 62.048ZM493.78 71.984C493.78 76.304 492.148 79.904 488.884 82.784C487.492 84.032 484.972 85.736 481.324 87.896C477.724 90.056 475.252 91.712 473.908 92.864C472.372 94.112 471.22 95.408 470.452 96.752C469.684 98.048 469.3 99.632 469.3 101.504V106.112H493.708V110H465.34V101.072C465.34 96.8 467.524 92.96 471.892 89.552C473.284 88.448 475.66 86.888 479.02 84.872C482.428 82.808 484.804 81.248 486.148 80.192C488.644 78.224 489.892 75.512 489.892 72.056C489.892 68.888 489.004 66.44 487.228 64.712C485.452 62.936 482.956 62.048 479.74 62.048C478.348 62.048 476.98 62.264 475.636 62.696C474.292 63.128 473.14 63.728 472.18 64.496C471.268 65.264 470.548 66.248 470.02 67.448C469.492 68.6 469.228 69.896 469.228 71.336H465.268C465.268 67.544 466.636 64.4 469.372 61.904C472.108 59.408 475.564 58.16 479.74 58.16C481.228 58.16 482.788 58.376 484.42 58.808C486.052 59.24 487.636 60.08 489.172 61.328C490.708 62.576 491.86 64.16 492.628 66.08C493.396 68 493.78 69.968 493.78 71.984ZM516.578 110.648C513.986 110.648 511.706 110.144 509.738 109.136C507.818 108.08 506.258 106.568 505.058 104.6C503.858 102.584 503.258 100.184 503.258 97.4V71.408C503.258 69.104 503.762 66.896 504.77 64.784C505.778 62.672 507.338 61.04 509.45 59.888C511.61 58.736 513.986 58.16 516.578 58.16C519.17 58.16 521.426 58.688 523.346 59.744C525.314 60.752 526.898 62.264 528.098 64.28C529.298 66.248 529.898 68.624 529.898 71.408V97.4C529.898 99.704 529.394 101.912 528.386 104.024C527.378 106.136 525.794 107.768 523.634 108.92C521.522 110.072 519.17 110.648 516.578 110.648ZM516.578 62.048C513.794 62.048 511.538 62.84 509.81 64.424C508.082 66.008 507.218 68.384 507.218 71.552V97.256C507.218 100.424 508.082 102.8 509.81 104.384C511.538 105.968 513.794 106.76 516.578 106.76C519.362 106.76 521.618 105.968 523.346 104.384C525.074 102.8 525.938 100.424 525.938 97.256V71.552C525.938 68.384 525.074 66.008 523.346 64.424C521.618 62.84 519.362 62.048 516.578 62.048Z" fill="black"/>
</g>
<defs>
<clipPath id="clip0">
<rect width="532" height="176" fill="white"/>
</clipPath>
</defs>
</svg>
