<svg width="532" height="176" viewBox="0 0 532 176" fill="none" xmlns="http://www.w3.org/2000/svg">
<g opacity="0.75">
<path d="M82.048 117L77.944 102.024H58.864L54.832 117H50.944L65.056 65.664H71.752L85.936 117H82.048ZM67.864 69.192L59.944 98.136H76.864L69.016 69.192H67.864ZM121.363 78.408H117.403C117.403 76.392 116.995 74.712 116.179 73.368C115.411 71.976 114.235 70.92 112.651 70.2C111.115 69.432 109.315 69.048 107.251 69.048C104.227 69.048 101.755 69.84 99.8348 71.424C97.9628 72.96 97.0268 75.312 97.0268 78.48V104.328C97.0268 107.496 97.9628 109.872 99.8348 111.456C101.755 112.992 104.227 113.76 107.251 113.76C110.227 113.76 112.651 113.016 114.523 111.528C116.395 109.992 117.355 107.64 117.403 104.472V93.384H106.459V89.496H121.363V104.4C121.363 108.336 120.067 111.528 117.475 113.976C114.931 116.424 111.523 117.648 107.251 117.648C102.931 117.648 99.4748 116.448 96.8828 114.048C94.3388 111.6 93.0668 108.408 93.0668 104.472V78.336C93.0668 74.4 94.3388 71.232 96.8828 68.832C99.4748 66.384 102.931 65.16 107.251 65.16C111.523 65.16 114.931 66.384 117.475 68.832C120.067 71.28 121.363 74.472 121.363 78.408ZM159.457 117H132.529V65.664H159.457V69.552H136.489V87.84H157.729V91.728H136.489V113.112H159.457V117ZM197.818 117H192.274L173.122 71.784V117H169.162V65.664H174.49L193.858 111.456V65.664H197.818V117ZM237.308 78.408H233.348C233.348 76.392 232.94 74.712 232.124 73.368C231.356 71.976 230.18 70.92 228.596 70.2C227.06 69.432 225.26 69.048 223.196 69.048C220.172 69.048 217.7 69.84 215.78 71.424C213.908 72.96 212.972 75.312 212.972 78.48V104.328C212.972 107.496 213.908 109.872 215.78 111.456C217.7 112.992 220.172 113.76 223.196 113.76C224.54 113.76 226.004 113.52 227.588 113.04C229.22 112.56 230.588 111.6 231.692 110.16C232.796 108.672 233.348 106.728 233.348 104.328H237.308V104.4C237.308 108.336 236.012 111.528 233.42 113.976C230.876 116.424 227.468 117.648 223.196 117.648C218.876 117.648 215.42 116.448 212.828 114.048C210.284 111.6 209.012 108.408 209.012 104.472V78.336C209.012 74.4 210.284 71.232 212.828 68.832C215.42 66.384 218.876 65.16 223.196 65.16C227.468 65.16 230.876 66.384 233.42 68.832C236.012 71.28 237.308 74.472 237.308 78.408ZM274.495 65.664L260.887 98.496V117H256.927V98.424L243.391 65.664H247.711L258.943 93.6L270.175 65.664H274.495ZM284.481 117H277.929V110.448H284.481V117ZM325.38 117H321.42V91.944H300.036V117H296.076V65.664H300.036V88.056H321.42V65.664H325.38V117ZM350.743 117.648C346.423 117.648 342.967 116.448 340.375 114.048C337.831 111.6 336.559 108.408 336.559 104.472V78.336C336.559 74.4 337.831 71.232 340.375 68.832C342.967 66.384 346.423 65.16 350.743 65.16C355.015 65.16 358.423 66.384 360.967 68.832C363.559 71.28 364.855 74.472 364.855 78.408V104.4C364.855 108.336 363.559 111.528 360.967 113.976C358.423 116.424 355.015 117.648 350.743 117.648ZM360.895 78.48C360.895 76.464 360.487 74.76 359.671 73.368C358.903 71.976 357.727 70.92 356.143 70.2C354.607 69.432 352.807 69.048 350.743 69.048C347.719 69.048 345.247 69.84 343.327 71.424C341.455 72.96 340.519 75.312 340.519 78.48V104.328C340.519 107.496 341.455 109.872 343.327 111.456C345.247 112.992 347.719 113.76 350.743 113.76C352.087 113.76 353.551 113.52 355.135 113.04C356.767 112.56 358.135 111.6 359.239 110.16C360.343 108.672 360.895 106.728 360.895 104.328V78.48ZM399.567 65.664H403.527V104.4C403.527 108.336 402.231 111.528 399.639 113.976C397.095 116.424 393.687 117.648 389.415 117.648C385.095 117.648 381.639 116.448 379.047 114.048C376.503 111.6 375.231 108.408 375.231 104.472V65.664H379.191V104.328C379.191 107.496 380.127 109.872 381.999 111.456C383.919 112.992 386.391 113.76 389.415 113.76C390.759 113.76 392.223 113.52 393.807 113.04C395.439 112.56 396.807 111.6 397.911 110.16C399.015 108.672 399.567 106.728 399.567 104.328V65.664ZM442.199 104.328C442.199 106.2 441.815 107.976 441.047 109.656C440.279 111.288 439.199 112.704 437.807 113.904C436.415 115.104 434.783 116.04 432.911 116.712C431.087 117.384 429.143 117.72 427.079 117.72C424.967 117.72 423.095 117.432 421.463 116.856C419.879 116.232 418.463 115.44 417.215 114.48C416.015 113.52 414.935 112.176 413.975 110.448C413.015 108.672 412.535 106.632 412.535 104.328H416.495C416.495 105.768 416.831 107.256 417.503 108.792C418.175 110.28 419.375 111.504 421.103 112.464C422.879 113.376 424.847 113.832 427.007 113.832C430.367 113.832 433.079 112.944 435.143 111.168C437.207 109.344 438.239 107.016 438.239 104.184C438.239 102.072 437.759 100.296 436.799 98.856C435.839 97.416 434.447 96.192 432.623 95.184C430.991 94.272 428.711 93.048 425.783 91.512C422.903 89.976 421.007 88.968 420.095 88.488C418.127 87.432 416.519 85.944 415.271 84.024C414.023 82.056 413.399 79.92 413.399 77.616C413.399 73.968 414.695 70.968 417.287 68.616C419.879 66.264 423.167 65.088 427.151 65.088C429.215 65.088 431.111 65.424 432.839 66.096C434.615 66.72 436.127 67.632 437.375 68.832C438.671 70.032 439.655 71.448 440.327 73.08C441.047 74.664 441.407 76.392 441.407 78.264H437.447C437.447 76.44 437.039 74.856 436.223 73.512C435.455 72.12 434.279 71.016 432.695 70.2C431.111 69.384 429.263 68.976 427.151 68.976C424.415 68.976 422.087 69.744 420.167 71.28C418.295 72.816 417.359 75 417.359 77.832C417.359 79.416 417.791 80.88 418.655 82.224C419.567 83.52 420.863 84.6 422.543 85.464C428.111 88.296 432.071 90.36 434.423 91.656C436.871 93 438.767 94.776 440.111 96.984C441.503 99.192 442.199 101.64 442.199 104.328ZM478.887 117H451.959V65.664H478.887V69.552H455.919V87.84H477.159V91.728H455.919V113.112H478.887V117Z" fill="black"/>
</g>
</svg>
